<svg xmlns="http://www.w3.org/2000/svg" viewBox="0 0 1749.59 1703.45"><defs><style>.cls-1{isolation:isolate;}.cls-2{fill:#fee4cb;}.cls-3,.cls-33{fill:#fff;}.cls-19,.cls-3{opacity:0.2;}.cls-4{fill:#07085b;}.cls-23,.cls-5{fill:#06bfad;}.cls-6{fill:#02ccc0;}.cls-7{fill:#feb546;}.cls-8{fill:#55769f;}.cls-9{fill:#f4a640;}.cls-10{fill:#1c2072;}.cls-11{fill:#4d5296;}.cls-12{fill:#eaf5f9;}.cls-13,.cls-21,.cls-26,.cls-27{fill:#daeef7;}.cls-14,.cls-15{fill:#cae2ea;}.cls-15,.cls-26,.cls-33{opacity:0.5;}.cls-15,.cls-21,.cls-23,.cls-24,.cls-32{mix-blend-mode:multiply;}.cls-16{fill:#f3fcff;}.cls-17,.cls-24{fill:#b6d5e0;}.cls-18{fill:#d37300;}.cls-19{mix-blend-mode:screen;}.cls-20{fill:#e03268;}.cls-22{fill:#ff5b7e;}.cls-23,.cls-27,.cls-32{opacity:0.3;}.cls-25{fill:#ce1b5c;}.cls-28{fill:#333;}.cls-29{fill:#ffc0bb;}.cls-30{fill:#fc8d84;opacity:0.6;}.cls-31,.cls-32{fill:#f99893;}</style></defs><g class="cls-1"><g id="Layer_2" data-name="Layer 2"><g id="Layer_1-2" data-name="Layer 1"><path class="cls-2" d="M164.07,882.78c7.1-136.23-45.41-232.86,27.79-336.17,45.32-64,220-145.1,265.34-209.07,15.21-21.48,30.68-43.24,50.05-59,53-43.13,122.44-33.1,186.11-29.29,47,2.81,94.44,1.25,140.56-10.12,117-28.84,217.17-118,327.32-174.12A642.31,642.31,0,0,1,1318.69,8.84c49.8-10.63,102.19-14.76,149.94,5.5s89.87,69.51,96,130.68c3.43,34.21-4.3,68.48-6.18,102.86s4.08,73.23,27.14,93.17c18.65,16.13,43.6,15.74,64.65,26.63,53.46,27.65,64.24,114.45,57.25,184.73s-23,146.08,4.52,208.46c7.61,17.28,18.26,32.48,25,50.28,8.09,21.33,10.18,45.25,11.34,68.7,6.47,131-13.16,263.74-56.72,383.72-7.26,20-15.45,40.08-28.53,55-16.22,18.52-38.28,27.23-56.52,42.71-20.49,17.38-35.58,42.81-55.64,60.93-37.36,33.77-86.73,38.23-133.17,41.45-129.41,9-261,17.75-387.12-18.55C887.89,1404,752.8,1305.72,606.28,1315c-77,4.87-156.22,39.37-229.07,8.63-36-15.19-67.19-46.67-86.87-86.36-20.86-42.06-20-94.35-43-134.84-15.28-27-40.32-41.55-56.12-67.79C166.31,993.25,161.48,932.44,164.07,882.78Z"/><path class="cls-3" d="M1733.19,1109.57a1004,1004,0,0,0,15.1-129.79c-73.45-13-148.54-19.32-218.63-44.49-2.47-9.19,6.86-17,15.38-21.3a148.34,148.34,0,0,1,105.21-9.89c12.26,3.45,24,8.49,36.29,11.95,20.49,5.77,41.75,7,63,5.34q-.15-20.79-1.16-41.54c-.89-18.17-2.37-36.62-6.74-53.93-33.71.64-67.63,1.06-100.82-4.79-49.6-8.75-98.45-31.44-148.2-23.6-30.45,4.8-57.92,20.71-87.45,29.55-60,18-124.21,6-186.77,7.43-23.5.54-47.86,3.31-67.89,15.6s-34.45,36.36-29,59.22c5.56,23.24,28.5,37.57,50.16,47.67a470.05,470.05,0,0,0,124.72,38.15c56.91,9,115,7.51,172.24,13.8,13.69,1.5,28,3.72,39,12.12,8.94,6.87,14.55,17.09,21.6,25.89,25.12,31.37,67,43.34,106.44,50.8A692.85,692.85,0,0,0,1733.19,1109.57Z"/><path class="cls-4" d="M81.51,712.12c25.48-16.19,36.75,30.69,39.29,43.43a186.35,186.35,0,0,1,30,7.13c-8.59-13.26-22.89-17.46-25.85-27.39-3.33-11.13.21-24.78,18-13.76,14.08,8.73,12.57,32.73,11.34,42.33a170.47,170.47,0,0,1,36,17.5c-7.8-16.7-23.85-23.47-26.05-35.11-2.41-12.72,3.06-27.19,21.46-12.44,15.22,12.18,9.77,40.11,7.42,49.43a102.09,102.09,0,0,1,12.32,9.61A331,331,0,0,1,228.76,817c-6.55-14.86-19.18-23.5-19.87-34.28-.84-12.93,6.37-26.32,22.86-8.84,13.05,13.82,5.5,38.85,1.78,48.7A327.39,327.39,0,0,1,269,874.46c-1.36-15.17-13.11-36-10-50.19,2-9.31,7.73-11.61,12.19-11.9a12.16,12.16,0,0,1,10.14,4.71c15,18.17-4.33,51-10.58,60.57A330.41,330.41,0,0,1,295,935.47c-.64-7.85-1.66-19.7-2.44-25.83-1.22-9.67,1.59-23.29,8-28.87.26-.23.53-.45.8-.65,5.12-3.86,12.06-2.41,16.4,2.83,17,20.45-14,52.35-20.84,59,0,.12.07.24.11.36,12.42,43.19,11.8,73.76,11.77,75l-4.15-.27c0-.3.57-29.4-10.58-69.92-39-4.39-50.67-29.66-45.73-39.19,5.11-9.84,20.1-13.6,27.64,4.66,4.37,10.59,11.1,20.63,16,27.2a323.84,323.84,0,0,0-24.46-59.13c-50.3,14.08-56-22.43-45.93-31.1s18.78-3.6,27.53,10.16A68.87,68.87,0,0,0,266,877.87a322,322,0,0,0-34.63-51c-5.88,8-22.26,27.26-38.87,19.58-20.77-9.59-13.49-22.93-3.06-27.68,9.59-4.37,23.46,7.54,39.86,5.62a325.15,325.15,0,0,0-26.52-27.88c-.16-.15-8.55-8.07-24.24-16.67-5,8.9-19,30.2-36.18,25-21.58-6.55-15.87-20.88-6.09-27.12,8.73-5.56,23.14,3.56,38.61.19A177.75,177.75,0,0,0,121,760.35c-5.24,9.19-19,29.56-35.87,24.44-21.59-6.55-15.87-20.88-6.09-27.11,8.85-5.65,23.55,3.82,39.26,0l0-.5c-5.6-2.63-17.49-8.17-23.29-10.49-7.74-3.09-16.61-12-17.88-20.86A15.69,15.69,0,0,1,81.51,712.12Z"/><path class="cls-5" d="M116.49,945.61l-63-1c-21.94-39.57-38-74-38-74,71.07-16.53,131.1-9.92,181.14,9.2l27.68,66.87,5.8-51.55c124,66.62,175.38,208.06,175.38,208.06s-219-22.88-265.5-44.38c-17.94-8.3-40.59-38.25-61.63-71.89C95.1,970.91,116.49,945.61,116.49,945.61Z"/><path class="cls-6" d="M15.48,870.61s281.39,117.75,390,232.58c0,0-219-22.88-265.5-44.38-17.94-8.3-40.59-38.25-61.63-71.89,16.75-16,38.14-41.31,38.14-41.31l-63-1C31.59,905,15.48,870.61,15.48,870.61Z"/><path class="cls-7" d="M.62,944.45c12-19.91,35.87,8.57,42,16.48a143.67,143.67,0,0,1,23.11-5.36c-10.47-6.2-21.77-4.19-27.22-10-6.11-6.54-8.35-17.17,7.69-15.66,12.7,1.19,19.89,18.26,22.33,25.31a131,131,0,0,1,30.84-.28c-11.11-8.84-24.5-8-30-15.28-6-7.95-7.21-19.8,10.54-15.94C94.56,926.88,100.37,948,102,955.25a79.36,79.36,0,0,1,11.79,2.4,257.34,257.34,0,0,1,24.4,8.65c-9.62-8-21.29-9.63-25.46-16.83-5-8.63-4.63-20.34,12.73-13.94,13.74,5.07,17.12,24.91,17.93,33a252.86,252.86,0,0,1,42.24,23.62c-6.14-10-21.4-20.34-24.12-31.18-1.78-7.12,1.36-10.66,4.33-12.39a9.38,9.38,0,0,1,8.61-.23c16.6,7.38,14.5,36.66,13.47,45.41a254.28,254.28,0,0,1,36.59,31.55c-3.14-5.2-7.9-13-10.54-17-4.16-6.25-6.89-16.6-4.37-22.66.1-.25.22-.49.33-.72,2.21-4.42,7.5-5.8,12.28-3.68,18.73,8.29,8.32,40.91,5.86,47.84l.19.21c23.38,25.53,33.43,46.83,33.85,47.72l-3,1.24c-.09-.21-9.68-20.48-31.27-44.6-28.43,10.35-45.11-3.09-45-11.35.15-8.54,9.2-16.27,20.66-6.26a103.35,103.35,0,0,0,20.34,13.28,249.8,249.8,0,0,0-37.14-32.4c-29.87,27-46.31,3.73-42.35-5.7s11.73-8.92,22.48-2.43a53.12,53.12,0,0,0,17.85,6.71,248.81,248.81,0,0,0-41.39-23.34c-1.31,7.54-6,26.43-20.09,26.84-17.61.5-17.16-11.19-11.6-18,5.12-6.3,18.77-2.84,29.42-9.79A251.68,251.68,0,0,0,113.19,961c-.16-.06-8.66-2.64-22.44-3.19-.39,7.85-2.74,27.34-16.39,29.63-17.13,2.88-18.1-9-13.49-16.62,4.11-6.82,17.18-5.48,26.69-13.1a136.75,136.75,0,0,0-43.17,6.41c-.47,8.14-3,26.91-16.36,29.16-17.14,2.88-18.11-9-13.5-16.62,4.17-6.92,17.55-5.43,27.09-13.42l-.14-.36c-4.76.1-14.86.36-19.66.75-6.4.52-15.56-2.56-19.48-8.27A12,12,0,0,1,.62,944.45Z"/><path class="cls-8" d="M24.83,1059.69c37.82-23.13,76-35.54,112.93-40.53,10.86,13.44,24.19,29.26,24.19,29.26l1.34-31.58c141.8-6.75,259.5,88,259.5,88-82,51.93-152.07,66.35-209.47,61.84-3.42-11-8.27-27.51-8.27-27.51L195,1164.59a247.76,247.76,0,0,1-72.81-23.23c5.35-13.16,11-28.22,11-28.22l-30.53,17.42C51.32,1099.35,24.83,1059.69,24.83,1059.69Z"/><path class="cls-4" d="M213.32,1166.71c-3.42-11-8.27-27.51-8.27-27.51L195,1164.59a247.76,247.76,0,0,1-72.81-23.23c5.35-13.16,11-28.22,11-28.22l-30.53,17.42c-51.28-31.21-77.77-70.87-77.77-70.87,165.19-19.42,398,45.18,398,45.18C340.76,1156.8,270.72,1171.22,213.32,1166.71Z"/><path class="cls-5" d="M1598,1279.05l74.08-1.2c25.81-46.55,44.76-87,44.76-87-83.62-19.46-125.13-21.28-184,1.21l-38.35,60-7.08-49.29C1341.5,1281.09,1258,1464.45,1258,1464.45s257.71-26.92,312.38-52.21c21.11-9.77,47.76-45,72.52-84.59C1623.2,1308.81,1598,1279.05,1598,1279.05Z"/><path class="cls-6" d="M1716.87,1190.81S1385.8,1329.34,1258,1464.45c0,0,257.71-26.92,312.38-52.21,21.11-9.77,47.76-45,72.52-84.59-19.71-18.84-44.88-48.6-44.88-48.6l74.08-1.2C1697.92,1231.3,1716.87,1190.81,1716.87,1190.81Z"/><path class="cls-7" d="M1705.87,1413.27c-44.49-27.21-89.39-41.82-132.87-47.69-12.77,15.82-28.46,34.42-28.46,34.42l-1.57-37.15c-166.84-7.94-305.32,103.57-305.32,103.57,96.51,61.11,178.92,78.07,246.45,72.76,4-13,9.73-32.36,9.73-32.36l11.87,29.87a291.47,291.47,0,0,0,85.65-27.33c-6.28-15.49-12.9-33.2-12.9-33.2l35.92,20.5C1674.7,1459.94,1705.87,1413.27,1705.87,1413.27Z"/><path class="cls-9" d="M1484.1,1539.18c4-13,9.73-32.36,9.73-32.36l11.87,29.87a291.47,291.47,0,0,0,85.65-27.33c-6.28-15.49-12.9-33.2-12.9-33.2l35.92,20.5c60.33-36.72,91.5-83.39,91.5-83.39-194.36-22.85-468.22,53.15-468.22,53.15C1334.16,1527.53,1416.57,1544.49,1484.1,1539.18Z"/><polygon class="cls-10" points="1456.09 653.88 884.36 527.26 884.36 1423.25 1456.09 1543.93 1456.09 653.88"/><polygon class="cls-4" points="1471.05 1543.71 1456.09 1543.93 1456.09 647.87 1471.05 647.65 1471.05 1543.71"/><polygon class="cls-11" points="884.36 527.26 890.92 522.3 1471.05 647.65 1456.09 653.88 884.36 527.26"/><polygon class="cls-10" points="312.64 653.88 884.36 527.26 884.36 1423.25 312.64 1543.93 312.64 653.88"/><path class="cls-12" d="M336.62,662.35,844.75,536.17s26.68,11.21,39.61,9.66L642.87,747.67s-167.33,21.68-171.59,14.46S336.62,662.35,336.62,662.35Z"/><polygon class="cls-13" points="336.62 1539.71 401.37 1568.68 401.37 691.32 336.62 662.35 336.62 1539.71"/><polygon class="cls-14" points="884.36 1423.25 401.37 1568.68 401.37 691.26 884.36 545.83 884.36 1423.25"/><polygon class="cls-15" points="835.97 689.22 449.77 805.51 449.77 742.31 835.97 626.02 835.97 689.22"/><polygon class="cls-15" points="835.97 716.76 593.03 789.91 593.03 778.57 835.97 705.42 835.97 716.76"/><polygon class="cls-15" points="835.97 745.12 593.03 818.27 593.03 806.93 835.97 733.78 835.97 745.12"/><polygon class="cls-15" points="835.97 773.48 593.03 846.63 593.03 835.28 835.97 762.13 835.97 773.48"/><polygon class="cls-15" points="835.97 801.83 593.03 874.98 593.03 863.64 835.97 790.49 835.97 801.83"/><polygon class="cls-15" points="835.97 830.19 593.03 903.34 593.03 892 835.97 818.85 835.97 830.19"/><polygon class="cls-15" points="835.97 858.54 593.03 931.69 593.03 920.35 835.97 847.2 835.97 858.54"/><polygon class="cls-15" points="835.97 886.9 593.03 960.05 593.03 948.71 835.97 875.56 835.97 886.9"/><polygon class="cls-15" points="835.97 915.26 593.03 988.41 593.03 977.06 835.97 903.91 835.97 915.26"/><polygon class="cls-15" points="835.97 943.61 593.03 1016.76 593.03 1005.42 835.97 932.27 835.97 943.61"/><polygon class="cls-15" points="835.97 971.97 593.03 1045.12 593.03 1033.78 835.97 960.63 835.97 971.97"/><polygon class="cls-15" points="835.97 1000.33 449.77 1116.62 449.77 1105.27 835.97 988.98 835.97 1000.33"/><polygon class="cls-15" points="642.87 1086.83 449.77 1144.97 449.77 1133.63 642.87 1075.48 642.87 1086.83"/><polygon class="cls-15" points="642.87 1115.18 449.77 1173.33 449.77 1161.98 642.87 1103.84 642.87 1115.18"/><polygon class="cls-15" points="642.87 1143.54 449.77 1201.68 449.77 1190.34 642.87 1132.2 642.87 1143.54"/><polygon class="cls-15" points="642.87 1171.89 449.77 1230.04 449.77 1218.7 642.87 1160.55 642.87 1171.89"/><polygon class="cls-15" points="642.87 1200.25 449.77 1258.4 449.77 1247.06 642.87 1188.91 642.87 1200.25"/><polygon class="cls-15" points="642.87 1228.61 449.77 1286.75 449.77 1275.41 642.87 1217.27 642.87 1228.61"/><polygon class="cls-15" points="642.87 1256.96 449.77 1315.11 449.77 1303.77 642.87 1245.62 642.87 1256.96"/><polygon class="cls-15" points="642.87 1285.32 449.77 1343.47 449.77 1332.12 642.87 1273.98 642.87 1285.32"/><polygon class="cls-15" points="642.87 1313.68 449.77 1371.82 449.77 1360.48 642.87 1302.33 642.87 1313.68"/><polygon class="cls-15" points="835.97 1283.89 449.77 1400.18 449.77 1388.84 835.97 1272.55 835.97 1283.89"/><polygon class="cls-15" points="835.97 1312.24 449.77 1428.53 449.77 1417.19 835.97 1300.9 835.97 1312.24"/><polygon class="cls-15" points="835.97 1340.6 449.77 1456.89 449.77 1445.55 835.97 1329.26 835.97 1340.6"/><polygon class="cls-15" points="449.77 1088.26 577.06 1049.93 577.06 783.38 449.77 821.71 449.77 1088.26"/><polygon class="cls-15" points="656.5 1309.57 835.97 1255.53 835.97 1017.34 656.5 1071.38 656.5 1309.57"/><path class="cls-16" d="M1432.1,662.35,924,536.17s-26.69,11.21-39.62,9.66l241.5,201.84s167.33,21.68,171.59,14.46S1432.1,662.35,1432.1,662.35Z"/><polygon class="cls-17" points="1432.1 1539.71 1367.35 1568.68 1367.35 691.32 1432.1 662.35 1432.1 1539.71"/><polygon class="cls-13" points="884.36 1423.25 1367.35 1568.68 1367.35 691.26 884.36 545.83 884.36 1423.25"/><polygon class="cls-4" points="297.68 1543.71 312.64 1543.93 312.64 647.87 297.68 647.65 297.68 1543.71"/><polygon class="cls-11" points="884.36 527.26 877.8 522.3 297.68 647.65 312.64 653.88 884.36 527.26"/><path class="cls-4" d="M931.28,531.09c-18.32-6.52-32.9-8.55-42.42-9.05-5.77-.53-23.5-1-50.84,8.73a32.94,32.94,0,0,0,5,4h0a60.65,60.65,0,0,0,25.1,9.47C904.91,552,931.28,531.09,931.28,531.09Z"/><polygon class="cls-4" points="908.34 1382.8 1343.84 1513.93 1343.84 722.8 908.34 591.66 908.34 1382.8"/><path class="cls-7" d="M908.34,992.54V1382.8l231.94,69.84a276.34,276.34,0,0,0,59.9-261.45C1162.68,1061.27,1038.22,980.06,908.34,992.54Z"/><path class="cls-9" d="M968.24,993.34a275.83,275.83,0,0,1,51.36,98.16c32.4,112.26-9.52,228.36-96.72,295.68l217.4,65.46a276.34,276.34,0,0,0,59.9-261.45C1168.51,1081.48,1074.83,1006.5,968.24,993.34Z"/><path class="cls-18" d="M1160.39,1108.25c72.37-14.93,135.22-24.68,183.45-28.51v-24.3c-56.94,8.45-123,21-195.24,37.33Q1154.75,1100.27,1160.39,1108.25Z"/><path class="cls-18" d="M1343.84,1197.91V1173.6c-90.31,43.86-232.48,96.27-395.21,143.24q-20.29,5.87-40.29,11.4v16.54q22.18-6.16,44.7-12.66C1103.43,1288.71,1239.32,1241.46,1343.84,1197.91Z"/><g class="cls-19"><path class="cls-13" d="M1044.33,632.61l-136-40.94V970.08c15.58-8.17,29-19.58,37.45-34.92,9.78-17.72,12.45-39.65,26.52-54.2,17.43-18,45.63-18.35,69.21-26.85,7.41-2.68,14.82-6.52,19.18-13.07,3.15-4.73,4.42-10.45,5.31-16.07a149.68,149.68,0,0,0-2.14-57.47c-8.44-35.88-30.24-69.76-26.64-106.44C1038.19,651.26,1040.94,641.86,1044.33,632.61Z"/></g><g class="cls-19"><path class="cls-13" d="M1343.84,856.14c-22.63-.71-45.24-1.15-67.82.78-12.22,1-25.11,3.14-34.65,12.24-13,12.44-16.15,34.16-25,51-29.62,56.13-107.1,38.92-147.82,84.24-11,12.19-18.36,28.07-26.52,43a360.78,360.78,0,0,1-52.31,73c-20.62,22.14-45.44,44.41-49.25,77.06-3.23,27.67,10,54,23.67,76.77,26.6,44.31,57,85.57,80.34,132.38,3.29,6.61,6.46,13.34,9.59,20.1l289.79,87.26Z"/></g><path class="cls-13" d="M1212.16,810.91c5.14,0,5.15-8,0-8s-5.15,8,0,8Z"/><path class="cls-13" d="M976.43,956c3.6,0,3.61-5.59,0-5.59s-3.6,5.59,0,5.59Z"/><path class="cls-13" d="M940.93,858.79c4.63,0,4.64-7.19,0-7.19s-4.63,7.19,0,7.19Z"/><path class="cls-13" d="M1267.54,1004.21c7.2,0,7.21-11.18,0-11.18s-7.21,11.18,0,11.18Z"/><path class="cls-13" d="M1002,722.87c5.14,0,5.15-8,0-8s-5.14,8,0,8Z"/><path class="cls-13" d="M1166.72,741.33c5.14,0,5.15-8,0-8s-5.15,8,0,8Z"/><path class="cls-13" d="M1273.22,921.67c5.14,0,5.15-8,0-8s-5.15,8,0,8Z"/><path class="cls-13" d="M1129.8,924.51c5.14,0,5.15-8,0-8s-5.15,8,0,8Z"/><path class="cls-13" d="M1322.92,741.33c5.14,0,5.15-8,0-8s-5.14,8,0,8Z"/><path class="cls-13" d="M1009.1,699c3.59,0,3.6-5.59,0-5.59s-3.61,5.59,0,5.59Z"/><path class="cls-13" d="M1166.72,1056.18c4.63,0,4.63-7.19,0-7.19s-4.63,7.19,0,7.19Z"/><path class="cls-13" d="M1261.86,1331.67c4.63,0,4.64-7.19,0-7.19s-4.63,7.19,0,7.19Z"/><path class="cls-13" d="M1286,1357.85c3.6,0,3.61-5.59,0-5.59s-3.6,5.59,0,5.59Z"/><path class="cls-13" d="M1322.92,1290.31c2.57,0,2.58-4,0-4s-2.57,4,0,4Z"/><path class="cls-13" d="M1307.3,998.58c3.6,0,3.61-5.59,0-5.59s-3.6,5.59,0,5.59Z"/><path class="cls-13" d="M952.29,695.89c5.14,0,5.15-8,0-8s-5.14,8,0,8Z"/><path class="cls-13" d="M925.31,944.62c3.6,0,3.61-5.59,0-5.59s-3.6,5.59,0,5.59Z"/><path class="cls-13" d="M1144,910.54c3.6,0,3.6-5.59,0-5.59s-3.6,5.59,0,5.59Z"/><path class="cls-13" d="M1097.14,882.14c3.6,0,3.6-5.6,0-5.6s-3.61,5.6,0,5.6Z"/><path class="cls-13" d="M1257.6,815.39c3.6,0,3.61-5.59,0-5.59s-3.6,5.59,0,5.59Z"/><path class="cls-13" d="M1256.18,1167.56c3.6,0,3.61-5.59,0-5.59s-3.6,5.59,0,5.59Z"/><path class="cls-13" d="M1278.9,1184.6c3.6,0,3.61-5.59,0-5.59s-3.6,5.59,0,5.59Z"/><path class="cls-13" d="M1222.1,1370.63c3.6,0,3.6-5.59,0-5.59s-3.6,5.59,0,5.59Z"/><path class="cls-13" d="M1142.22,794.14s-1.62,16.94-14.23,14.36c12.61,5,14.23,22.91,14.23,22.91s1.62-16.94,14.23-14.36C1143.84,812.06,1142.22,794.14,1142.22,794.14Z"/><path class="cls-13" d="M1267.54,1413.87s-1.62,17-14.23,14.36c12.61,5,14.23,22.92,14.23,22.92s1.62-17,14.23-14.37C1269.16,1431.79,1267.54,1413.87,1267.54,1413.87Z"/><path class="cls-13" d="M1126.09,675.34s-1.29,13.5-11.33,11.44c10,4,11.33,18.25,11.33,18.25s1.29-13.5,11.33-11.44C1127.38,689.61,1126.09,675.34,1126.09,675.34Z"/><path class="cls-13" d="M988.09,794.14S987,805.76,978.33,804c8.65,3.42,9.76,15.71,9.76,15.71s1.11-11.62,9.75-9.85C989.2,806.42,988.09,794.14,988.09,794.14Z"/><path class="cls-13" d="M1297.55,1108.25s-1.11,11.62-9.76,9.85c8.65,3.43,9.76,15.71,9.76,15.71s1.11-11.62,9.75-9.85C1298.66,1120.54,1297.55,1108.25,1297.55,1108.25Z"/><path class="cls-13" d="M1252.11,722.43s-.81,8.39-7,7.11c6.24,2.47,7,11.35,7,11.35s.8-8.4,7-7.12C1252.91,731.3,1252.11,722.43,1252.11,722.43Z"/><path class="cls-13" d="M1307.3,876.5s-.8,8.39-7,7.11c6.24,2.48,7,11.35,7,11.35s.81-8.39,7-7.11C1308.11,885.37,1307.3,876.5,1307.3,876.5Z"/><path class="cls-13" d="M1201.91,876.5s-.8,8.39-7.05,7.11c6.25,2.48,7.05,11.35,7.05,11.35s.8-8.39,7-7.11C1202.71,885.37,1201.91,876.5,1201.91,876.5Z"/><path class="cls-13" d="M988.09,625.81s-.81,8.4-7.05,7.12c6.24,2.47,7.05,11.35,7.05,11.35s.8-8.4,7-7.12C988.89,634.69,988.09,625.81,988.09,625.81Z"/><path class="cls-13" d="M1050,970.65s-.68,7.14-6,6.05c5.31,2.1,6,9.65,6,9.65s.68-7.14,6-6.05C1050.64,978.2,1050,970.65,1050,970.65Z"/><path class="cls-4" d="M1348.23,1519.84,904,1386.07V585.75l444.28,133.78ZM912.74,1379.53,1339.44,1508v-782L912.74,597.58Z"/><path class="cls-20" d="M440.22,1692.08,55,1557,360.1,1388.7l394.06,140.89L457.92,1690.66A21.89,21.89,0,0,1,440.22,1692.08Z"/><path class="cls-13" d="M84.93,1410.77s57.95,67-9.07,140.35l363,136.39a24.77,24.77,0,0,0,26-5.39L478,1669.38S523.7,1544,523.7,1540.87s-91.46-77.27-91.46-77.27-150.59-18.14-154.53-18.14S84.93,1410.77,84.93,1410.77Z"/><path class="cls-21" d="M479.55,1646.52c-2.37,0-269.65-88.31-269.65-88.31s266.5,96.88,267.28,94.52S479.55,1646.52,479.55,1646.52Z"/><path class="cls-20" d="M64.43,1407.22v8.28l383.19,131.28s23.65,29.57,21.29,69.78-11.08,72-23.69,72.42c0,0,8,.65,12-1.83s13.38-10.87,13.38-10.87,15.87-71.55,16.66-73.32-8.28-60.12-14.39-64.46-1-11.24-30-16.56S185.66,1414.12,180.14,1415.5s-52.83-.79-55.39,0S64.43,1407.22,64.43,1407.22Z"/><path class="cls-20" d="M453.53,1543.23s48.79,82.8,0,149.23l324.84-176s38.24-78.45-11-127.72Z"/><polygon class="cls-22" points="453.53 1543.23 64.43 1407.22 415.69 1287.77 767.33 1388.69 453.53 1543.23"/><path class="cls-21" d="M391.24,1570l-283.15-98.52c.1,2.07.12,4.18.08,6.32Z"/><path class="cls-21" d="M104.87,1500.9q-1.17,4.33-2.82,8.79l207.79,67.84Z"/><path class="cls-5" d="M391.54,1500.29l393-116.7L489.12,1238.14,87,1359.88l287,139.18A24.6,24.6,0,0,0,391.54,1500.29Z"/><path class="cls-13" d="M763,1257.21s-61.8,57.91,1,121.27L393.19,1496.35c-9.17,2.91-19.16,1.1-25.66-4.66l-12.43-11s-38.52-108.33-38.34-111,95.9-66.77,95.9-66.77,151.64-15.67,155.58-15.67S763,1257.21,763,1257.21Z"/><path class="cls-21" d="M354.84,1460.92c2.36,0,274.72-76.3,274.72-76.3s-272.06,83.71-272.72,81.67S354.84,1460.92,354.84,1460.92Z"/><path class="cls-5" d="M783.72,1254.15l-.48,7.15L392.51,1374.74s-25.36,25.55-25.31,60.29,6.94,62.2,19.52,62.58c0,0-8,.57-11.88-1.58s-12.75-9.39-12.75-9.39-11.75-61.83-12.44-63.36,11.74-52,18.1-55.7,1.63-9.71,30.91-14.3,263.44-93.17,268.88-92,52.87-.68,55.39,0S783.72,1254.15,783.72,1254.15Z"/><path class="cls-5" d="M386.8,1371.67s-53.55,71.55-8.59,128.95L63.5,1348.51s-33.73-67.79,18.38-110.37Z"/><polygon class="cls-6" points="386.8 1371.67 783.72 1254.15 439.34 1150.93 81.88 1238.14 386.8 1371.67"/><path class="cls-21" d="M447.54,1394.83l288.82-85.13c-.21,1.79-.36,3.62-.45,5.47Z"/><path class="cls-21" d="M737.89,1335.09a76.28,76.28,0,0,0,2.32,7.6l-211.69,58.62Z"/><path class="cls-23" d="M134.78,1261.3s-53,55.27-11.57,116.16l23.44,11.24s-30.15-72.85,14.64-115.79Z"/><path class="cls-9" d="M482,1357.74,154.66,1246.65,393,1108.8l335.06,115.89-231.59,131.9A17.66,17.66,0,0,1,482,1357.74Z"/><path class="cls-13" d="M168.2,1126.7s52.8,55,3.21,115.12L480.55,1354c7.64,2.78,15.8,1.06,21-4.4l9.87-10.44s28.11-102.8,27.87-105.39-81.15-63.46-81.15-63.46-125.34-15-128.58-15S168.2,1126.7,168.2,1126.7Z"/><path class="cls-21" d="M510.94,1320.39c-1.95,0-228.66-72.64-228.66-72.64s226.72,79.67,227.19,77.74S510.94,1320.39,510.94,1320.39Z"/><path class="cls-9" d="M151.06,1123.77l.63,6.79,325.38,108s21.72,24.27,22.83,57.26-3.64,59-14,59.39c0,0,6.61.54,9.72-1.49s10.19-8.91,10.19-8.91,7.62-58.68,8.14-60.14-11.39-49.32-16.75-52.88-1.66-9.22-25.92-13.61-219.92-88.64-224.36-87.52-43.54-.68-45.59,0S151.06,1123.77,151.06,1123.77Z"/><path class="cls-9" d="M481.67,1235.65s46.45,67.95,11.35,122.41l254-144.15s25.51-64.33-18.79-104.79Z"/><polygon class="cls-7" points="481.67 1235.64 151.06 1123.77 431.1 1026.06 728.22 1109.12 481.67 1235.64"/><path class="cls-21" d="M432.44,1257.59l-240.56-81c.24,1.7.42,3.43.55,5.19Z"/><path class="cls-21" d="M191.47,1200.65c-.42,2.37-1,4.78-1.66,7.21L366,1263.67Z"/><polygon class="cls-9" points="453.33 1202.35 261.96 1135.23 299.79 1118.77 502.52 1178.86 453.33 1202.35"/><polygon class="cls-24" points="912.74 540.36 1408.46 672.93 1415.96 1546.93 1399.73 1559.77 1399.73 676.84 912.74 540.36"/><path class="cls-20" d="M893,1654c4.61,1.37,9.86-.59,12-4.47,7.79-14.27,28.2-48,61.23-77.73,1.37-1.23,7.85-5.57,33.75-9.68,18.36-2.91,43.28-5.23,74.08-6.88,52.28-2.81,122-3.76,207.11-2.82,145.19,1.58,286.7,8.19,288.11,8.25l2-15.78c-1.41-.07-143.32-6.69-288.9-8.28-85.63-.94-155.79,0-208.55,2.85-91.1,4.89-112.48,14.24-120.93,21.83A319,319,0,0,0,888,1643.57c-2.28,4.21,0,9,5,10.47Z"/><path class="cls-25" d="M1585.85,1703.35c-4.94.67-9.44-2-10.27-6.1-3-15.07-12.19-51-35-84.81-.95-1.4-5.89-6.58-29.87-14.36-17-5.51-40.6-11.4-70.15-17.49-50.16-10.34-117.9-21.4-201.35-32.86-142.28-19.56-282.58-33.69-284-33.83l3.12-15.69c1.41.14,142.1,14.3,284.76,33.91,83.92,11.53,152.13,22.67,202.74,33.1,87.41,18,105.3,30.26,111.13,38.9,24.32,36.1,33.86,73.56,37.07,89.74.88,4.44-2.89,8.78-8.24,9.49Z"/><polygon class="cls-26" points="973.23 1562.16 1139.34 1413.33 1195.88 1453.07 1027.39 1604.33 973.23 1562.16"/><polygon class="cls-26" points="1197.58 1462.24 1038.72 1607 1051.04 1611.47 1204.37 1471.38 1197.58 1462.24"/><path class="cls-26" d="M1327.55,1588.77s151.65-144.43,153.12-144.64,48.59,21.06,48.59,21.06l-163,158.8Z"/><path class="cls-26" d="M1374.73,1627.45c1.74-1.89,157.8-156,157.8-156l7.94,9.89-157.35,150.94Z"/><ellipse class="cls-27" cx="1090.32" cy="1513.1" rx="121.9" ry="102.12" transform="translate(-202.85 169.23) rotate(-8.12)"/><ellipse class="cls-27" cx="1438.22" cy="1538.69" rx="121.9" ry="102.12" transform="translate(-202.95 218.61) rotate(-8.12)"/><path class="cls-22" d="M1568.81,1536.5l-2.41-.18c.87-24.61-8.16-48.13-26-67.24-20.71-22.12-50.8-35.68-84.73-38.18s-67.65,6.37-94.93,25c-22.54,15.35-38.45,35.83-45.93,58.71-23.27-17.64-49.48-17.86-68.54-14.39a131.71,131.71,0,0,0-27.67,8.41c.29-23.83-8.73-46.55-26.09-65.11-20.71-22.12-50.8-35.68-84.74-38.18s-67.64,6.37-94.93,25c-23.56,16.06-39.89,37.72-46.9,61.87l-2.4-.18c-9.38-.68-18,5.2-19.3,13.16h0c-1.29,7.95,5.27,14.95,14.64,15.64l3.27.24c.57,22.59,9.53,44,26.07,61.71,20.7,22.12,50.79,35.68,84.73,38.18s67.64-6.37,94.93-25c25.35-17.28,42.33-41,48.33-67.41l.11.12a108.82,108.82,0,0,1,33.79-12.23c24.09-4.22,44.22,2.11,59.85,18.8l.53-.36c-2.75,26.84,6.24,52.74,25.62,73.46,20.71,22.12,50.8,35.68,84.73,38.18s67.65-6.37,94.93-25c21.8-14.85,37.39-34.49,45.16-56.46l3.27.24c9.37.69,18-5.2,19.29-13.16S1578.18,1537.19,1568.81,1536.5Zm-364.71-15c-8.6,53.24-66.64,92.79-129.38,88.18S967.94,1558,976.54,1504.74s66.64-92.79,129.38-88.18S1212.7,1468.24,1204.1,1521.47Zm347.9,25.59c-8.6,53.24-66.64,92.79-129.38,88.18s-106.79-51.68-98.19-104.92c.32-2,.71-3.87,1.15-5.78l.11-.08-.07-.08c11.79-50.2,67.81-86.67,128.19-82.23C1516.55,1446.77,1560.6,1493.83,1552,1547.06Z"/><path class="cls-28" d="M654.79,1310.52l-7.92,17.66a2.89,2.89,0,0,0,1.46,3.82l41.35,18.54a3.28,3.28,0,0,0,4.08-4.8l-16-24.93S665.11,1323.13,654.79,1310.52Z"/><path class="cls-20" d="M472.55,1090.81s-12.73,59.94,45.06,74.17,130.73,15.68,130.73,15.68l1.35,139.63,30.42,3.48s90.78-188.15-16.09-225.21l-97.78-5.69-40.07-5.41s-40.1-12.64-40.7-10.75S473.45,1091.83,472.55,1090.81Z"/><path class="cls-28" d="M698.44,931.05c8.69-11,5.35-20.18-6.44-36.46-17.91-24.71-39.92-28.41-58.75-44.92-6.59-5.78-17.48-24.07-24.65-36.84a189.2,189.2,0,0,1-9.74-20.43c-16-38.78-53.42-32.47-53.42-32.47s1.93,49.05,2.07,50.42c0,.28,1.55,1.07,3.93,2.16-7.46,7.35-19.53,19.29-21.91,23.25-3.47,5.75-17.68,30.71-17.68,30.71s24.63,68.38,26.95,87.5c1.22,10.12,16.48,13,33.7,14,10.89,21,26,42.19,42.09,40.8,31.3-2.71,30.2-14.81,40.44-24.73s32,.51,46.05-16.52C711.79,954.49,693,937.9,698.44,931.05Z"/><path class="cls-29" d="M586.29,971.29s-10.9,110.66-.65,124.94H543.82V964.7Z"/><path class="cls-28" d="M477.94,781s-12.23,18.4-18.47,25.69c-15.7,18.35-17.72,12.6-27.48,28.38-10.53,17,.13,27.7,6.18,32.61s-4.08,23.07,7.21,33.25c14.77,13.33,28.43.76,38.59,8.23s12.39,18.53,36.47,16.44,23.85-80.84,23.85-80.84-19.71-41.75-20.49-42.1S477.94,781,477.94,781Z"/><path class="cls-29" d="M540.6,893s-40.2-7.4-58.68-6.77,11.2,48.68,11.2,48.68l30.19.67s18.51-20.67,17.29-23.07.06-18.18.06-18.18Z"/><path class="cls-29" d="M504.76,854.62l-10.6,32.18s9.23,19.09,37.5,10.86c0,0-3.23-6.67,1.1-20.4C537.18,863.24,504.76,854.62,504.76,854.62Z"/><path class="cls-30" d="M504.76,854.62l-5,15c3,11,12.59,18.47,30.73,20.8a43.84,43.84,0,0,1,2.25-13.19C537.18,863.24,504.76,854.62,504.76,854.62Z"/><path class="cls-31" d="M569.44,831.06c-2.3,5.22-.77,11,3.41,12.78s9.43-.91,11.73-6.13.76-11-3.42-12.79S571.73,825.83,569.44,831.06Z"/><path class="cls-29" d="M567.1,861.93a44.21,44.21,0,0,0,3.51-7.14,81.79,81.79,0,0,0,5-20.19c.16-1.35.41-2.68.68-4a44.15,44.15,0,1,0-87.41-10,9.52,9.52,0,0,0-8.57-.9c-5.3,2.2-7.37,9.35-4.62,16s9.28,10.21,14.58,8a8.84,8.84,0,0,0,2-1.2c1.62,21.67,18.89,38.82,40.13,39a39.55,39.55,0,0,0,27.16-10.47,16.31,16.31,0,0,0,1.53-1.36A38.43,38.43,0,0,0,567.1,861.93Z"/><path class="cls-31" d="M557,823a27.14,27.14,0,0,0-1.41,7.44,21.1,21.1,0,0,0,.13,3.88,9.81,9.81,0,0,0,1.34,4l.37.48.32.4a3.28,3.28,0,0,1,.44.56,2.75,2.75,0,0,1,.48,1.21,3.4,3.4,0,0,1-.84,2.61c-1.34,1.67-3.69,2.58-6.14,3.08a8.55,8.55,0,0,0,7.5-1.79,5.16,5.16,0,0,0,1.75-4.11,4,4,0,0,0-.24-1.19,4.25,4.25,0,0,0-.5-1.08,6.31,6.31,0,0,0-.69-.92c-.15-.17-.17-.22-.25-.32l-.2-.26a9.21,9.21,0,0,1-1.1-3,33,33,0,0,1-.5-3.53C557.26,828,557.16,825.55,557,823Z"/><path class="cls-28" d="M542.07,828.16a3.86,3.86,0,1,1-3.81-3.9A3.85,3.85,0,0,1,542.07,828.16Z"/><path class="cls-28" d="M570.69,828.86a3.85,3.85,0,1,1-3.81-3.89A3.84,3.84,0,0,1,570.69,828.86Z"/><path class="cls-32" d="M541.5,853.76a12.31,12.31,0,0,1,10.18,1.36s5.33-3.34,9.53-.15a10.12,10.12,0,0,1-10.71,7.4A9.05,9.05,0,0,1,541.5,853.76Z"/><path class="cls-31" d="M536.91,850.92a26.79,26.79,0,0,0,3.11,2.19,26.48,26.48,0,0,0,3.33,1.76,22.77,22.77,0,0,0,7.19,1.93,19.36,19.36,0,0,0,7.36-.82,27,27,0,0,0,6.75-3.37,22.61,22.61,0,0,1-3,2.34,21.49,21.49,0,0,1-3.46,1.73,17.41,17.41,0,0,1-3.77,1,19.67,19.67,0,0,1-3.91.11,20.25,20.25,0,0,1-7.43-2.22A22,22,0,0,1,536.91,850.92Z"/><path class="cls-28" d="M543.5,816.64a39.19,39.19,0,0,0-5.68-1.15,19.51,19.51,0,0,0-5.35.08,18.38,18.38,0,0,0-5.1,1.55c-.87.31-1.63.87-2.51,1.28s-1.64,1-2.59,1.5a15.85,15.85,0,0,1,1.61-2.63,13.33,13.33,0,0,1,2.25-2.19,12.5,12.5,0,0,1,5.89-2.51,13,13,0,0,1,6.36.61A11.79,11.79,0,0,1,543.5,816.64Z"/><path class="cls-28" d="M561.1,816.64a11.84,11.84,0,0,1,5.51-2.81A13,13,0,0,1,573,814a12.51,12.51,0,0,1,5.54,3.21,13.09,13.09,0,0,1,2,2.44,16.88,16.88,0,0,1,1.28,2.81c-.89-.57-1.6-1.24-2.39-1.8a27.32,27.32,0,0,0-2.34-1.57,18.22,18.22,0,0,0-4.87-2.17,20.07,20.07,0,0,0-5.3-.73A40.74,40.74,0,0,0,561.1,816.64Z"/><path class="cls-6" d="M562.27,983.74s-7.85,22.94-9.28,35.13c-3.54,30.26,3,56.24,9.28,73.47,8.78,24.16-65.67,10.74-67.13,10s-63-24.52-63-24.52l-4.63-47.43-7.08-46.65,3.29-27.46Z"/><path class="cls-29" d="M444.32,917s9.53.83,8.5,17.4S444,982.56,444,982.56,368.9,1127,352.43,1141a5.21,5.21,0,0,1-3.2,1.22l-52.6,1.54h0a15.9,15.9,0,0,1,8.7-5.92l23.6-6.26a3.47,3.47,0,0,0,2.18-1.71l7.57-13.8,57-152c5.81-13.55,19.65-21.29,29.15-32.55C431.76,923.32,439.34,916.23,444.32,917Z"/><path class="cls-6" d="M540.6,893s-27.32,31.89-58.68-6.77c0,0-34.26-2.8-59.52,15.14S382,959.58,382,959.58s45.76,23.06,57.11,24.16h127a112.73,112.73,0,0,0,38.07-11S601,908.72,540.6,893Z"/><path class="cls-13" d="M459.47,935.56c-1.31,3.92-2.47,7.88-3.64,11.83s-2.24,7.94-3.29,11.94-2,8-2.9,12-1.72,8.09-2.37,12.19l1-1a23.66,23.66,0,0,1-4.2,0c-1.44-.09-2.88-.31-4.33-.51-2.87-.51-5.76-1.06-8.59-1.86l-2.14-.57-2.11-.64c-1.41-.45-2.83-.85-4.22-1.35l-4.18-1.45-4.14-1.6c-2.77-1-5.48-2.26-8.22-3.38l-8.1-3.69-8-3.89c-2.64-1.36-5.28-2.72-8-4,2.52,1.59,5.06,3.14,7.61,4.69s5.17,3,7.78,4.42,5.3,2.76,8,4.1l4.07,1.88c1.35.63,2.7,1.27,4.1,1.82a130.15,130.15,0,0,0,17,6l2.18.58,2.2.5c1.47.37,3,.6,4.46.86s3,.41,4.53.5a25.71,25.71,0,0,0,4.72,0l.83-.1.14-.87c1.23-8.1,2.88-16.16,4.59-24.21l2.62-12.08Z"/><path class="cls-13" d="M556.05,926.3q2.69,7,4.87,14.13a124.59,124.59,0,0,1,3.53,14.38,66.93,66.93,0,0,1,1,7.3,52.79,52.79,0,0,1,.19,7.33c-.18,4.89-7.43,27.9-9.56,32.46,3-4,10.9-27.25,11.43-32.31a52.68,52.68,0,0,0-.67-15.2c-.47-2.49-1-5-1.72-7.39s-1.48-4.83-2.4-7.18A77.41,77.41,0,0,0,556.05,926.3Z"/><path class="cls-28" d="M488.84,820.63s46.94-11.33,69.36-43.22c0,0,.39-29-42.7-22.45C473.64,761.36,463.84,802.1,488.84,820.63Z"/><path class="cls-28" d="M601.21,1308.42l-7.92,17.66a2.89,2.89,0,0,0,1.46,3.82l41.35,18.54a3.28,3.28,0,0,0,4.08-4.8l-16-24.93S611.53,1321,601.21,1308.42Z"/><path class="cls-22" d="M430.11,1076.1c-12.28,16.12-14.87,37.91-5.9,56.09,6.23,12.62,18,24.38,39.66,29.72,57.79,14.23,130.73,15.68,130.73,15.68L596,1317.21l30.42,3.49s90.77-188.15-16.1-225.21l-97.78-5.69-40.07-5.42s-40.09-12.63-40.69-10.74A12.94,12.94,0,0,1,430.11,1076.1Z"/><path class="cls-13" d="M610.84,1181.31c-1.55-.28-3.1-.54-4.63-.9s-3-.77-4.54-1.22c-.75-.23-1.5-.48-2.24-.76a18.3,18.3,0,0,0,2.27-.65,19.91,19.91,0,0,0,4.16-2.13,23.61,23.61,0,0,0,3.48-3.06,23.16,23.16,0,0,0,2.72-3.68l-1.54,1.67c-.55.52-1.07,1.06-1.64,1.54a22.91,22.91,0,0,1-3.58,2.66,21,21,0,0,1-4,1.87,14.79,14.79,0,0,1-4.23.85l-2.51.1,2.23,1a28.21,28.21,0,0,0,4.57,1.6,47,47,0,0,0,4.68,1c1.57.25,3.14.47,4.73.59s3.17.19,4.75.19C614,1181.79,612.39,1181.6,610.84,1181.31Z"/><path class="cls-33" d="M891.22,429a59.82,59.82,0,0,1,73.31-44.41,88,88,0,0,1,105.84-46.75,108.42,108.42,0,0,1,194.75,18.94,74.38,74.38,0,0,1,110.54,65c0,2.44-.12,4.84-.35,7.22Z"/><path class="cls-33" d="M723.24,387a16.48,16.48,0,0,0-16.06-12.78,16.82,16.82,0,0,0-4.16.53,24.28,24.28,0,0,0-29.18-12.89,29.9,29.9,0,0,0-53.71,5.22A20.53,20.53,0,0,0,589.64,385c0,.67,0,1.33.1,2Z"/><path class="cls-33" d="M1512.22,137.59a23.63,23.63,0,0,0-23-18.32,24,24,0,0,0-6,.76,34.84,34.84,0,0,0-41.85-18.49,42.88,42.88,0,0,0-77,7.5,29.41,29.41,0,0,0-43.71,25.7c0,1,0,1.91.14,2.85Z"/><path class="cls-33" d="M1705.86,465.63A81.5,81.5,0,0,0,1583,485.45a66.2,66.2,0,0,0-79.6,35.16A44.95,44.95,0,0,0,1448.29,554h259c.06-.53.11-1.06.16-1.59C1710.28,524.5,1710.24,494,1705.86,465.63Z"/><path class="cls-33" d="M201.3,535H488.91a44.28,44.28,0,0,0-54.31-32.9,65.2,65.2,0,0,0-78.42-34.64,80.76,80.76,0,0,0-28.05-27.76C278.49,472.44,228.3,505.26,201.3,535Z"/><path class="cls-3" d="M1695.48,424.36c-9.32-25.12-23.86-45.63-45.23-56.68-21-10.89-46-10.5-64.65-26.63-11.44-9.89-18.66-24.43-22.82-40.77-87.38-.09-175,3.71-259.67-16.33-7.06-1.67-14.38-3.65-19.78-8.49-11.67-10.45-9.25-30.6,1.2-42.27s26.3-16.72,41.56-20.27c77.07-17.94,156.71-9.81,236.15-4.51,2.38-21.16,4.52-42.29,2.4-63.39a154.48,154.48,0,0,0-3.44-20.25c-78,2.81-156.13-8.19-234.18-6.08-8.93.24-18.55.9-25.47,6.54-6.23,5.08-9,13.15-13.3,19.94-13,20.41-38.68,27.83-62.15,33.69L971.38,242.39C948.3,248.15,924,254.54,907,271.17c-29.56,28.89-22.57,85.6,13.12,106.45,20.93,12.22,46.54,12.3,70.78,12l113-1.21c25.75-.28,52.34-.41,76.13,9.47,22.14,9.19,40.2,26.4,62.25,35.81,24.11,10.29,51.16,10.53,77.38,10.61l290.13.84c22.32.07,45.35,0,65.91-8.68A78.89,78.89,0,0,0,1695.48,424.36Z"/><path class="cls-22" d="M228.4,1214s-19.74,20-10.74,47c0,0,6-14,12-18,0,0-1,17,6,24,0,0,6.18-37.67,25.09-41.34Z"/><path class="cls-7" d="M453.53,1433.79S465.66,1448,464.66,1466c0,0,6.67-9.21,8.34-16.1a25.27,25.27,0,0,1,10.66,11.1s7.48-19.06-.26-35.53Z"/><path class="cls-6" d="M266.15,1526.51S245.66,1554,252.66,1598c0,0,7-18,23-28,0,0,7,29,11,39,0,0,16-58.35,35-63.17Z"/></g></g></g></svg>